<?xml version="1.0" encoding="utf-8"?>
<!-- Generator: Adobe Illustrator 25.2.0, SVG Export Plug-In . SVG Version: 6.00 Build 0)  -->
<svg version="1.1" id="Layer_1" xmlns="http://www.w3.org/2000/svg" xmlns:xlink="http://www.w3.org/1999/xlink" x="0px" y="0px"
	 viewBox="0 0 491.5 88.9" style="enable-background:new 0 0 491.5 88.9;" xml:space="preserve">
<path d="M484.1,74c4.1,0,7.4,3.3,7.4,7.4s-3.3,7.4-7.4,7.4c-4.1,0-7.4-3.3-7.4-7.4S480,74,484.1,74z M416.2,71.6
	c1.1,3.6,2.9,6.7,5.3,9.2c2.4,2.5,5.3,4.5,8.9,5.9c3.6,1.4,7.8,2.1,12.7,2.1c4.4,0,8.3-0.6,11.9-1.9s6.6-3.2,9-5.7
	c2.5-2.5,4.4-5.5,5.7-9.2c1.3-3.6,2-7.8,2-12.5c0-4.5-0.6-8.5-1.7-12.1c-1.1-3.6-2.8-6.7-5.1-9.3c-2.3-2.5-5.3-4.5-8.9-5.9
	c-3.6-1.4-7.9-2.1-13-2.1c-4.3,0-8.2,0.6-11.8,1.9c-3.5,1.3-6.6,3.2-9,5.7c-2.5,2.5-4.4,5.5-5.8,9.2c-1.4,3.7-2,7.9-2,12.6
	C414.5,64,415.1,68,416.2,71.6z M430.8,41c2.8-3.9,6.6-5.8,11.3-5.8c3.2,0,5.9,0.6,8,1.8c2.2,1.2,4,2.9,5.4,5.1
	c1.4,2.2,2.4,4.8,3.1,7.8c0.6,3,1,6.2,1,9.6c0,8.4-1.4,14.5-4.1,18.4c-2.7,3.9-6.2,5.8-10.5,5.8c-3.4,0-6.2-0.6-8.6-1.9
	c-2.3-1.3-4.2-3-5.7-5.1c-1.5-2.2-2.5-4.7-3.2-7.6c-0.6-2.9-1-6.1-1-9.6C426.6,51,428,44.9,430.8,41z M396.4,21.7
	c4.1,0,7.4-3.3,7.4-7.4s-3.3-7.4-7.4-7.4c-4.1,0-7.4,3.3-7.4,7.4S392.3,21.7,396.4,21.7z M403.7,82.3V31.2h-19.3v5.4h8v45.8h-11.7
	h-1.4h-6.1V0l-11.3,8.9v23.1c-1-0.3-1.9-0.6-2.8-0.8c-0.9-0.3-1.8-0.4-2.7-0.6c-0.9-0.1-1.9-0.3-3-0.3c-1.1-0.1-2.4-0.1-3.9-0.1
	c-4.2,0-8.1,0.6-11.5,1.9c-3.4,1.3-6.4,3.2-8.8,5.7c-2.4,2.5-4.3,5.6-5.7,9.3c-1.3,3.7-2,8-2,12.8c0,10,2,17.3,6,22
	c2,2.4,4.6,4.2,7.7,5.4c0.6,0.3,1.2,0.5,1.8,0.7c0.8,0.2,1.7,0.4,2.7,0.6c0.1,0,0.1,0,0.2,0c0.7,0.1,1.4,0.2,2.1,0.3
	c0.3,0,0.7,0.1,1.1,0.1c0.8,0.1,1.5,0.1,2.3,0.1c0,0,0.1,0,0.1,0l0,0c0,0,0.1,0,0.1,0c4.6,0,5.1-1.1,5.1-1.1l7.1-6.9l-6.8,0.6
	l-3.1,0.1c-2.5,0-4.7-0.6-6.5-1.7c-1.8-1.1-3.3-2.7-4.4-4.7c-1.2-2-2-4.3-2.5-6.9c-0.5-2.7-0.8-5.5-0.8-8.5c0-3.7,0.4-7.1,1.1-10.2
	c0.7-3.1,1.8-5.7,3.2-7.8c1.4-2.2,3.1-3.8,5.2-5c2.1-1.1,4.4-1.7,7.1-1.7c2.9,0,5.2,0.2,7,0.5c1.8,0.4,3.4,0.9,4.8,1.6v31.8l0,18.6
	h17.4h1.4h31v-5.4H403.7z M280.7,80.4c-1.6-0.8-2.8-2-3.7-3.6c-0.9-1.6-1.5-3.5-1.8-5.8c-0.3-2.3-0.5-4.9-0.5-7.8
	c0-5.5,0.1-10.9,0.2-16c0.1-5.1,0.2-10.5,0.4-16.1h-7h-12.4h-14.2V17.7l-11.3,10v3.5v6.9h0v34.7c0,5.7,1.3,9.9,3.8,12.3
	c2.5,2.5,6.2,3.7,11,3.7c1.9,0,3.7-0.2,5.4-0.6c1.8-0.4,3.4-1,4.8-1.6c1.4-0.6,2.7-1.3,3.8-2.1c1.1-0.8,2-1.5,2.6-2.1l-2.7-4.2
	c-1.4,0.9-2.9,1.8-4.5,2.6c-1.6,0.8-3.5,1.2-5.8,1.2c-2.6,0-4.5-0.9-5.6-2.8c-1.2-1.9-1.7-5.1-1.7-9.6V38.1H264
	c0,4.1-0.1,8.3-0.3,12.7c-0.2,5-0.3,9.8-0.3,14.5c0,4.7,0.4,8.5,1.3,11.5c0.9,3,2.1,5.4,3.8,7.2c1.7,1.8,3.7,3,6.1,3.7
	c2.4,0.7,5.8,1,8.5,1c4.6,0,8.9-1.1,8.9-1.1l5.6-6.8l-10.8,0.6C284.2,81.6,282.2,81.2,280.7,80.4z M312.6,82.3V31.2h-19.2v5.4h7.9
	v32.3l0.2,18.8h19.1v-5.4H312.6z M208.9,80.6c-2.2,1.4-5.1,2.1-8.5,2.1c-2.1,0-3.8-0.2-5.1-0.6s-2.4-1-3.3-1.7l-2.2-2.2v-8h-6.9
	v14.1c1.9,1.2,4.5,2.3,7.7,3.2c3.3,0.9,6.7,1.3,10.1,1.3c3.1,0,6-0.4,8.8-1.1c2.8-0.8,5.2-1.8,7.3-3.2c2.1-1.4,3.7-3.1,4.9-5.1
	c1.2-2,1.8-4.3,1.8-6.9c0-2.8-0.7-5.2-2.2-7.2c-1.4-2-3.2-3.8-5.4-5.3c-2.2-1.5-4.5-2.9-7-4.1c-2.5-1.2-4.8-2.5-7-3.7
	c-2.2-1.2-3.9-2.6-5.4-4c-1.4-1.4-2.2-3.1-2.2-5c0-2,0.8-3.6,2.5-4.9c1.7-1.3,4.3-2,7.7-2c1.2,0,2.4,0.1,3.4,0.2
	c1.1,0.1,2.1,0.3,3,0.5l2,2.3v8.3h6.9V33c-1.3-0.4-2.6-0.8-3.8-1.2c-1.2-0.4-2.5-0.7-3.9-0.9c-1.4-0.3-2.9-0.4-4.5-0.6
	c-1.7-0.1-3.6-0.2-5.7-0.2c-2.6,0-5.1,0.3-7.4,1c-2.3,0.7-4.3,1.6-6,2.9c-1.7,1.2-3.1,2.7-4.1,4.4c-1,1.7-1.5,3.6-1.5,5.7
	c0,3.1,0.7,5.7,2.2,7.9c1.4,2.2,3.2,4.1,5.4,5.7c2.2,1.6,4.5,3.1,7,4.3c2.5,1.3,4.8,2.5,7,3.7c2.2,1.2,3.9,2.6,5.4,4
	c1.4,1.5,2.2,3.1,2.2,5.1C212.2,77.3,211.1,79.2,208.9,80.6z M147.7,40.9h13.1v-9.7h-10.3l-9.9,10.9h-0.4V31.2h-19.3v5.4h8v45.8
	h-6.6h-1.4h-6.6V31.2H95.2v5.4h7.9v32.3l0.2,18.8h17.7h1.4h27.2v-5.4h-9.4V48.8L147.7,40.9z M93.6,87.7l5.6-6.8l-10.8,0.6
	c-2.4,0-4.5-0.4-6-1.2c-1.6-0.8-2.8-2-3.7-3.6c-0.9-1.6-1.5-3.5-1.8-5.8c-0.3-2.3-0.5-4.9-0.5-7.8c0-5.5,0.1-10.9,0.2-16
	c0.1-5.1,0.2-10.5,0.4-16.1H57.5v5.4h8.2c0,4.5-0.1,9.3-0.3,14.2c-0.2,5-0.3,9.8-0.3,14.5c0,4.7,0.4,8.5,1.3,11.5
	c0.9,3,2.1,5.4,3.8,7.2c1.7,1.8,3.7,3,6.1,3.7c2.4,0.7,5.8,1,8.5,1C89.4,88.8,93.6,87.7,93.6,87.7z M1.7,71.6
	c1.1,3.6,2.9,6.7,5.3,9.2c2.4,2.5,5.3,4.5,8.9,5.9c3.6,1.4,7.8,2.1,12.7,2.1c4.4,0,8.3-0.6,11.9-1.9c3.5-1.3,6.6-3.2,9-5.7
	c2.5-2.5,4.4-5.5,5.7-9.2c1.3-3.6,2-7.8,2-12.5c0-4.5-0.6-8.5-1.7-12.1c-1.1-3.6-2.8-6.7-5.1-9.3c-2.3-2.5-5.3-4.5-8.9-5.9
	c-3.6-1.4-7.9-2.1-13-2.1c-4.3,0-8.2,0.6-11.8,1.9c-3.5,1.3-6.6,3.2-9,5.7c-2.5,2.5-4.4,5.5-5.8,9.2c-1.4,3.7-2,7.9-2,12.6
	C0,64,0.6,68,1.7,71.6z M16.3,41c2.8-3.9,6.6-5.8,11.3-5.8c3.2,0,5.9,0.6,8,1.8c2.2,1.2,4,2.9,5.4,5.1c1.4,2.2,2.4,4.8,3.1,7.8
	c0.6,3,1,6.2,1,9.6c0,8.4-1.4,14.5-4.1,18.4c-2.7,3.9-6.2,5.8-10.5,5.8c-3.4,0-6.2-0.6-8.6-1.9c-2.3-1.3-4.2-3-5.7-5.1
	c-1.5-2.2-2.5-4.7-3.2-7.6c-0.6-2.9-1-6.1-1-9.6C12.1,51,13.5,44.9,16.3,41z"/>
</svg>
